<?xml version="1.0" encoding="utf-8"?>
<!-- Generator: Adobe Illustrator 19.2.0, SVG Export Plug-In . SVG Version: 6.00 Build 0)  -->
<svg version="1.1" id="Layer_1" xmlns="http://www.w3.org/2000/svg" xmlns:xlink="http://www.w3.org/1999/xlink" x="0px" y="0px"
	 viewBox="0 0 600 400" style="enable-background:new 0 0 600 400;" xml:space="preserve">
<style type="text/css">
	.st0{fill:none;stroke:#333333;stroke-width:4;stroke-miterlimit:10;}
</style>
<path class="st0" d="M219.6,29.3c0,0,59.7-7,64.9,74.6c4.7,72.9-47.8,106.8-25.4,164c24.7,63,14.1,96-12.2,101.4
	c0,0-50.1,16.7-62.9-58.7c-12.8-75.4-33.7-146.2-22.7-210.8S202.3,31.6,219.6,29.3z"/>
<path class="st0" d="M437.3,99.8c11,64.6-9.9,135.4-22.7,210.8c-12.8,75.4-62.9,58.7-62.9,58.7c-26.3-5.4-36.9-38.4-12.2-101.4
	c22.4-57.2-30.1-91.1-25.4-164c5.2-81.6,64.9-74.6,64.9-74.6C396.3,31.6,426.3,35.2,437.3,99.8z"/>
</svg>
